<?xml version="1.0" encoding="UTF-8" standalone="no"?>
<!-- Created with Inkscape (http://www.inkscape.org/) -->
<svg
   xmlns:dc="http://purl.org/dc/elements/1.1/"
   xmlns:cc="http://creativecommons.org/ns#"
   xmlns:rdf="http://www.w3.org/1999/02/22-rdf-syntax-ns#"
   xmlns:svg="http://www.w3.org/2000/svg"
   xmlns="http://www.w3.org/2000/svg"
   xmlns:xlink="http://www.w3.org/1999/xlink"
   xmlns:sodipodi="http://sodipodi.sourceforge.net/DTD/sodipodi-0.dtd"
   xmlns:inkscape="http://www.inkscape.org/namespaces/inkscape"
   height="128.00000pt"
   id="svg1"
   inkscape:version="0.46"
   sodipodi:docbase="/home/andy/Desktop/etiquette-icons-0.4/scalable/mimetypes"
   sodipodi:docname="gnome-mime-image.svg"
   sodipodi:version="0.32"
   width="128.00000pt"
   inkscape:output_extension="org.inkscape.output.svg.inkscape"
   inkscape:export-filename="C:\Documents and Settings\All Users\Documents\Ubuntu Brig\Andy Fitzsimon\gnome-mime-image.png"
   inkscape:export-xdpi="90"
   inkscape:export-ydpi="90">
  <metadata
     id="metadata3">
    <rdf:RDF>
      <cc:Work
         rdf:about="">
        <dc:title>Etiquette Icons</dc:title>
        <dc:description />
        <dc:subject>
          <rdf:Bag>
            <rdf:li>hash</rdf:li>
            <rdf:li />
            <rdf:li>mime-types</rdf:li>
            <rdf:li>computer</rdf:li>
            <rdf:li>icons</rdf:li>
          </rdf:Bag>
        </dc:subject>
        <dc:publisher>
          <cc:Agent
             rdf:about="http://www.openclipart.org">
            <dc:title>Andy Fitzsimon</dc:title>
          </cc:Agent>
        </dc:publisher>
        <dc:creator>
          <cc:Agent>
            <dc:title>Andy Fitzsimon</dc:title>
          </cc:Agent>
        </dc:creator>
        <dc:rights>
          <cc:Agent>
            <dc:title>Andy Fitzsimon</dc:title>
          </cc:Agent>
        </dc:rights>
        <dc:date />
        <dc:format>image/svg+xml</dc:format>
        <dc:type
           rdf:resource="http://purl.org/dc/dcmitype/StillImage" />
        <cc:license
           rdf:resource="http://web.resource.org/cc/PublicDomain" />
        <dc:language>en</dc:language>
      </cc:Work>
      <cc:License
         rdf:about="http://web.resource.org/cc/PublicDomain">
        <cc:permits
           rdf:resource="http://web.resource.org/cc/Reproduction" />
        <cc:permits
           rdf:resource="http://web.resource.org/cc/Distribution" />
        <cc:permits
           rdf:resource="http://web.resource.org/cc/DerivativeWorks" />
      </cc:License>
    </rdf:RDF>
  </metadata>
  <defs
     id="defs3">
    <inkscape:perspective
       sodipodi:type="inkscape:persp3d"
       inkscape:vp_x="0 : 80 : 1"
       inkscape:vp_y="0 : 1000 : 0"
       inkscape:vp_z="160 : 80 : 1"
       inkscape:persp3d-origin="80 : 53.333333 : 1"
       id="perspective78" />
    <linearGradient
       id="linearGradient2387">
      <stop
         id="stop2388"
         offset="0.0000000"
         style="stop-color:#ffffff;stop-opacity:0.0000000;" />
      <stop
         id="stop2389"
         offset="1"
         style="stop-color:#fff;stop-opacity:1;" />
    </linearGradient>
    <linearGradient
       id="linearGradient2386"
       x1="0.55686277"
       x2="0.56078434"
       xlink:href="#linearGradient2387"
       y1="0.74418604"
       y2="-0.54651165" />
    <linearGradient
       id="linearGradient836"
       x1="0.40492958"
       x2="0.43309858"
       xlink:href="#linearGradient832"
       y1="1.5392157"
       y2="-0.18627451" />
    <linearGradient
       id="linearGradient890"
       x1="0.68877554"
       x2="0.44897959"
       xlink:href="#linearGradient844"
       y1="0.087301590"
       y2="0.51984125" />
    <linearGradient
       id="linearGradient889"
       x1="0.12264151"
       x2="0.52358490"
       xlink:href="#linearGradient882"
       y1="0.66666669"
       y2="0.33730158" />
    <linearGradient
       id="linearGradient880"
       x1="0.86538464"
       x2="0.46666667"
       xlink:href="#linearGradient844"
       y1="0.047619049"
       y2="0.43650794" />
    <linearGradient
       id="linearGradient921"
       x1="0.59630799"
       x2="-0.055982146"
       xlink:href="#linearGradient832"
       y1="0.73598528"
       y2="0.37869984" />
    <linearGradient
       id="linearGradient832">
      <stop
         id="stop833"
         offset="0"
         style="stop-color:#000;stop-opacity:1;" />
      <stop
         id="stop834"
         offset="1"
         style="stop-color:#fff;stop-opacity:1;" />
    </linearGradient>
    <linearGradient
       id="linearGradient835"
       x1="0.78521127"
       x2="1.1725352"
       xlink:href="#linearGradient832"
       y1="0.28160921"
       y2="1.1954023" />
    <linearGradient
       id="linearGradient844">
      <stop
         id="stop845"
         offset="0.00000000"
         style="stop-color:#ffffff;stop-opacity:1.0000000;" />
      <stop
         id="stop848"
         offset="1.0000000"
         style="stop-color:#ffffff;stop-opacity:0.00000000;" />
    </linearGradient>
    <linearGradient
       id="linearGradient843"
       x1="0.71830988"
       x2="0.57394367"
       xlink:href="#linearGradient844"
       y1="0.012500000"
       y2="0.80000001" />
    <linearGradient
       id="linearGradient838">
      <stop
         id="stop839"
         offset="0.00000000"
         style="stop-color:#a5a5a5;stop-opacity:1.0000000;" />
      <stop
         id="stop885"
         offset="0.17875445"
         style="stop-color:#dadada;stop-opacity:1.0000000;" />
      <stop
         id="stop842"
         offset="0.48317710"
         style="stop-color:#656565;stop-opacity:1.0000000;" />
      <stop
         id="stop841"
         offset="0.61641997"
         style="stop-color:#d5d5d5;stop-opacity:1.0000000;" />
      <stop
         id="stop840"
         offset="1.0000000"
         style="stop-color:#454545;stop-opacity:1.0000000;" />
    </linearGradient>
    <linearGradient
       id="linearGradient837"
       x1="0.50352114"
       x2="0.77464789"
       xlink:href="#linearGradient838"
       y1="0.22395833"
       y2="0.54166669" />
    <linearGradient
       id="linearGradient881"
       x1="0.58098590"
       x2="0.58098590"
       xlink:href="#linearGradient882"
       y1="2.0080366"
       y2="-6.6841485e-006" />
    <linearGradient
       id="linearGradient850">
      <stop
         id="stop851"
         offset="0.00000000"
         style="stop-color:#071422;stop-opacity:1.0000000;" />
      <stop
         id="stop853"
         offset="0.50000000"
         style="stop-color:#2c528a;stop-opacity:1.0000000;" />
      <stop
         id="stop854"
         offset="0.75000000"
         style="stop-color:#a3bfdf;stop-opacity:1.0000000;" />
      <stop
         id="stop852"
         offset="1.0000000"
         style="stop-color:#59708a;stop-opacity:1.0000000;" />
    </linearGradient>
    <linearGradient
       id="linearGradient849"
       x1="0.63380283"
       x2="0.54577464"
       xlink:href="#linearGradient850"
       y1="0.47435898"
       y2="0.38461539" />
    <linearGradient
       id="linearGradient882">
      <stop
         id="stop883"
         offset="0.00000000"
         style="stop-color:#000000;stop-opacity:0.33333334;" />
      <stop
         id="stop884"
         offset="1.0000000"
         style="stop-color:#000000;stop-opacity:0.00000000;" />
    </linearGradient>
    <linearGradient
       id="linearGradient1064"
       x1="-1.1108099"
       x2="0.90986663"
       xlink:href="#linearGradient882"
       y1="3.3240275"
       y2="-0.11480361" />
    <linearGradient
       id="linearGradient1507">
      <stop
         id="stop1508"
         offset="0.0000000"
         style="stop-color:#000000;stop-opacity:0.095505618;" />
      <stop
         id="stop1510"
         offset="1.0000000"
         style="stop-color:#000000;stop-opacity:0.0000000;" />
    </linearGradient>
    <linearGradient
       id="linearGradient1501">
      <stop
         id="stop1502"
         offset="0.0000000"
         style="stop-color:#ffffff;stop-opacity:1.0000000;" />
      <stop
         id="stop1504"
         offset="1.0000000"
         style="stop-color:#ffffff;stop-opacity:0.0000000;" />
    </linearGradient>
    <linearGradient
       id="linearGradient1492">
      <stop
         id="stop1493"
         offset="0.0000000"
         style="stop-color:#dadada;stop-opacity:1.0000000;" />
      <stop
         id="stop1496"
         offset="0.34923077"
         style="stop-color:#f1f1f1;stop-opacity:1.0000000;" />
      <stop
         id="stop1494"
         offset="1.0000000"
         style="stop-color:#f0f0f0;stop-opacity:1.0000000;" />
    </linearGradient>
    <linearGradient
       id="linearGradient1495"
       x1="0.88034189"
       x2="0.085470088"
       xlink:href="#linearGradient1492"
       y1="0.21093750"
       y2="1.1796875" />
    <linearGradient
       id="linearGradient1497"
       x1="0.63247865"
       x2="-0.37606838"
       xlink:href="#linearGradient1492"
       y1="0.32812500"
       y2="1.3281250" />
    <linearGradient
       id="linearGradient1499"
       x1="1.5572519"
       x2="0.062992126"
       xlink:href="#linearGradient1501"
       y1="-0.55303031"
       y2="0.54687500" />
    <linearGradient
       id="linearGradient1506"
       x1="0.052173913"
       x2="0.78260869"
       xlink:href="#linearGradient1507"
       y1="0.97656250"
       y2="0.0078125000" />
    <linearGradient
       id="linearGradient1556"
       x1="0.42068964"
       x2="0.51724136"
       xlink:href="#linearGradient850"
       y1="0.53906250"
       y2="0.44531250" />
    <linearGradient
       id="linearGradient2407"
       x1="0.56470591"
       x2="0.15686275"
       xlink:href="#linearGradient2387"
       y1="0.50806451"
       y2="-0.77419353" />
    <linearGradient
       id="linearGradient2515"
       x1="0.68613136"
       x2="0.42335767"
       xlink:href="#linearGradient838"
       y1="0.46093750"
       y2="0.71875000" />
    <linearGradient
       id="linearGradient2516"
       x1="0.48872182"
       x2="0.91729325"
       xlink:href="#linearGradient838"
       y1="0.23437500"
       y2="0.67187500" />
    <linearGradient
       id="linearGradient2577"
       x1="0.76870745"
       x2="-0.40136054"
       xlink:href="#linearGradient832"
       y1="0.51562500"
       y2="-1.0859375" />
    <linearGradient
       id="linearGradient1063"
       x1="-0.11764706"
       x2="0.52941179"
       xlink:href="#linearGradient1501"
       y1="1.3805310"
       y2="0.54867256" />
  </defs>
  <sodipodi:namedview
     bordercolor="#666666"
     borderopacity="1.0"
     id="base"
     inkscape:cx="85.548806"
     inkscape:cy="70.284128"
     inkscape:pageopacity="0.0"
     inkscape:pageshadow="2"
     inkscape:window-height="667"
     inkscape:window-width="573"
     inkscape:window-x="330"
     inkscape:window-y="127"
     inkscape:zoom="2.0917798"
     pagecolor="#ffffff"
     showgrid="false"
     inkscape:current-layer="svg1" />
  <path
     d="M 17.159384,6.3292894 L 17.159384,43.068526 L 17.159384,79.807768 L 17.159384,116.54700 L 17.159384,153.28624 L 50.687024,153.28624 L 84.214664,153.28624 L 117.74230,153.28624 L 151.26994,153.28624 L 151.26994,116.54700 L 151.26994,79.807768 L 151.26994,43.068526 L 117.74230,6.3292894 L 84.214664,6.3292894 L 50.687024,6.3292894 L 17.159384,6.3292894 z "
     id="path930"
     sodipodi:nodetypes="cccccccccccccccc"
     style="fill:#ffffff;fill-rule:evenodd;stroke-width:0.42649043;stroke-opacity:0.36477986;" />
  <g
     id="g1552"
     style="fill:url(#linearGradient1506);"
     transform="matrix(0.304171,0.000000,0.000000,0.297572,-36.70399,-112.4880)">
    <path
       d="M 173.35959,408.81260 L 173.35959,531.07360 L 173.35959,653.33460 L 173.35959,775.59560 L 173.35959,897.85660 L 282.12187,897.85660 L 390.88417,897.85660 L 499.64646,897.85660 L 608.40874,897.85660 L 608.40874,775.59560 L 608.40874,653.33460 L 608.40874,531.07360 L 499.64646,408.81260 L 390.88417,408.81260 L 282.12187,408.81260 L 173.35959,408.81260 z "
       id="path1505"
       sodipodi:nodetypes="cccccccccccccccc"
       style="fill-opacity:0.75000000;fill-rule:evenodd;stroke-width:0.95407495pt;" />
    <path
       d="M 170.12500,407.18750 C 170.12500,571.82292 170.12500,736.45833 170.12500,901.09375 C 317.30208,901.09375 464.47917,901.09375 611.65625,901.09375 C 611.65625,777.33333 611.65625,653.57292 611.65625,529.81250 C 574.80918,488.38978 537.97604,446.95335 501.09375,405.56250 C 390.77083,405.56250 280.44792,405.56250 170.12500,405.56250 C 170.12500,405.89583 170.12500,406.97917 170.12500,407.18750 z "
       id="path1538"
       style="fill-opacity:0.75000000;fill-rule:evenodd;stroke-width:0.95407495pt;" />
    <path
       d="M 166.87500,403.93750 C 166.87500,570.73958 166.87500,737.54167 166.87500,904.34375 C 316.21875,904.34375 465.56250,904.34375 614.90625,904.34375 C 614.90625,779.08333 614.90625,653.82292 614.90625,528.56250 C 577.45517,486.47298 540.01754,444.37017 502.53125,402.31250 C 390.64583,402.31250 278.76042,402.31250 166.87500,402.31250 C 166.87500,402.64583 166.87500,403.72917 166.87500,403.93750 z "
       id="path1543"
       style="fill-opacity:0.75000000;fill-rule:evenodd;stroke-width:0.95407495pt;" />
  </g>
  <path
     d="M 297.99034,136.74154 L 297.99034,260.57234 L 297.99034,384.40315 L 297.99034,508.23395 L 297.99034,632.06475 L 410.99634,632.06475 L 524.00235,632.06475 L 637.00835,632.06475 L 750.01435,632.06475 L 750.01435,508.23395 L 750.01435,384.40315 L 750.01435,260.57234 L 637.00835,136.74154 L 524.00235,136.74154 L 410.99634,136.74154 L 297.99034,136.74154 z "
     id="rect900"
     sodipodi:nodetypes="cccccccccccccccc"
     style="fill:url(#linearGradient1495);fill-opacity:1;fill-rule:evenodd;stroke:#000000;stroke-width:1.4375000;stroke-opacity:0.36477986;"
     transform="matrix(0.296689,0.000000,0.000000,0.296689,-71.19601,-34.05825)" />
  <g
     id="g3370"
     transform="matrix(0.955369,0.000000,0.000000,0.955369,166.4497,246.7108)">
    <path
       d="M 126.42298,530.03046 L 126.42298,1017.8390 L 428.73203,1017.8390 L 430.23396,625.22339 L 362.16632,530.03046 L 126.42298,530.03046 z "
       id="path1007"
       sodipodi:nodetypes="cccccc"
       style="fill:#46a046;fill-rule:evenodd;stroke-width:1.0000000pt;"
       transform="matrix(0.394837,0.000000,0.000000,0.273242,-195.3479,-384.7390)" />
    <path
       d="M 126.42298,528.70866 L 126.42298,769.93640 C 232.47985,804.30314 290.70041,683.27236 429.80222,778.44179 L 430.47776,624.56124 L 367.08319,528.70866 L 126.42298,528.70866 z "
       id="path1008"
       sodipodi:nodetypes="cccccc"
       style="fill:#9db8d2;fill-rule:evenodd;stroke-width:1.0000000pt;"
       transform="matrix(0.394837,0.000000,0.000000,0.273242,-195.3479,-384.7390)" />
    <path
       d="M 138.32851,592.70961 C 137.27243,538.56770 173.84529,543.91145 263.57189,543.91145 C 353.29849,543.91145 416.85483,560.73519 422.46274,624.29153 C 428.07065,687.84787 228.25559,728.59905 177.78437,731.40300 C 127.31316,734.20696 139.38459,648.39795 138.32851,592.70961 z "
       id="path1009"
       sodipodi:nodetypes="cczzz"
       style="fill:url(#linearGradient2407);fill-opacity:1;fill-rule:evenodd;stroke-width:1.0000000pt;"
       transform="matrix(0.394837,0.000000,0.000000,0.273242,-195.3479,-384.7390)" />
    <path
       d="M -122.56215,-170.31124 C -111.08047,-170.49182 -83.655403,-179.48997 -64.352351,-179.12894 C -45.042247,-178.76777 -28.863517,-172.62786 -27.297834,-169.73850 C -25.732147,-166.84913 -26.775939,-154.93050 -26.775939,-154.93050 L -145.32564,-155.19154 L -145.17081,-173.02035 C -136.31397,-170.21111 -134.56572,-170.13065 -122.56215,-170.31124 z "
       id="path1010"
       sodipodi:nodetypes="czccccz"
       style="fill:url(#linearGradient2386);fill-opacity:1;fill-rule:evenodd;stroke-width:1.0000000pt;" />
    <path
       d="M -142.71246,-150.21508 C -142.71246,-150.21508 -126.86038,-126.56663 -111.74627,-125.74445 C -96.210881,-124.89934 -86.482399,-127.14465 -73.797474,-114.59553 C -61.112548,-102.04641 -29.828383,-107.04453 -31.413999,-120.78880 C -32.999615,-134.53308 -63.752441,-138.64362 -73.266135,-133.86300 C -82.779830,-129.08238 -127.91338,-137.66596 -131.61315,-145.43447 C -135.31292,-153.20297 -145.07322,-156.06808 -142.45708,-149.72982"
       id="path1613"
       sodipodi:nodetypes="czzzccc"
       style="fill:url(#linearGradient1063);fill-opacity:1;fill-rule:evenodd;stroke-width:1.0000000pt;" />
  </g>
  <path
     style="font-size:12px;stroke-width:1pt;font-family:Bitstream Vera Sans"
     d="M 20.115681,184.96689 L 20.115681,176.37704 L 21.252399,176.37704 L 21.252399,184.96689 L 20.115681,184.96689 z M 23.115681,184.96689 L 23.115681,178.74423 L 24.05904,178.74423 L 24.05904,179.61728 C 24.254351,179.3126 24.514116,179.06748 24.838337,178.88193 C 25.162553,178.69639 25.531693,178.60361 25.945759,178.60361 C 26.406692,178.60361 26.784622,178.69932 27.079548,178.89072 C 27.374465,179.08213 27.582472,179.34971 27.703571,179.69345 C 28.195753,178.96689 28.836377,178.60361 29.625446,178.60361 C 30.242626,178.60361 30.717235,178.77451 31.049274,179.1163 C 31.381297,179.4581 31.547312,179.98447 31.547321,180.6954 L 31.547321,184.96689 L 30.498493,184.96689 L 30.498493,181.04697 C 30.498485,180.6251 30.464305,180.32139 30.395954,180.13583 C 30.327587,179.95029 30.203563,179.80088 30.023884,179.68759 C 29.844189,179.57432 29.633252,179.51768 29.391071,179.51767 C 28.953565,179.51768 28.590284,179.66318 28.301228,179.95419 C 28.012159,180.24521 27.867628,180.71103 27.867634,181.35165 L 27.867634,184.96689 L 26.812946,184.96689 L 26.812946,180.92392 C 26.812942,180.45517 26.727004,180.10361 26.555134,179.86923 C 26.383255,179.63486 26.102005,179.51768 25.711384,179.51767 C 25.414506,179.51768 25.140092,179.5958 24.888142,179.75204 C 24.636186,179.9083 24.453569,180.13682 24.34029,180.43759 C 24.227007,180.73838 24.170366,181.17197 24.170368,181.73837 L 24.170368,184.96689 L 23.115681,184.96689 z M 37.18404,184.19931 C 36.793411,184.53134 36.417434,184.76572 36.05611,184.90244 C 35.694779,185.03915 35.307084,185.10751 34.893024,185.10751 C 34.209429,185.10751 33.684039,184.94052 33.316853,184.60654 C 32.949664,184.27255 32.766071,183.8458 32.766071,183.32626 C 32.766071,183.02158 32.835407,182.74326 32.974079,182.4913 C 33.11275,182.23935 33.294391,182.0372 33.519001,181.88486 C 33.743609,181.73252 33.996538,181.61728 34.27779,181.53915 C 34.484819,181.48447 34.797319,181.43174 35.21529,181.38095 C 36.066849,181.27939 36.693801,181.1583 37.096149,181.01767 C 37.100051,180.87314 37.102004,180.78135 37.102009,180.74228 C 37.102004,180.3126 37.002395,180.00986 36.803181,179.83408 C 36.533645,179.5958 36.133255,179.47666 35.602009,179.47665 C 35.105912,179.47666 34.739702,179.56357 34.503376,179.7374 C 34.267046,179.91123 34.092241,180.21885 33.978962,180.66025 L 32.947712,180.51962 C 33.041461,180.07822 33.195758,179.72178 33.410603,179.45029 C 33.625445,179.17881 33.935992,178.96982 34.342243,178.82333 C 34.748491,178.67686 35.219193,178.60361 35.754353,178.60361 C 36.285599,178.60361 36.717239,178.66611 37.049274,178.79111 C 37.381301,178.91611 37.625441,179.07334 37.781696,179.26279 C 37.937941,179.45225 38.047316,179.6915 38.109821,179.98056 C 38.144972,180.16025 38.16255,180.48447 38.162556,180.95322 L 38.162556,182.35947 C 38.16255,183.33994 38.185011,183.96005 38.229939,184.21982 C 38.274854,184.47958 38.363722,184.72861 38.49654,184.96689 L 37.394978,184.96689 C 37.285598,184.74814 37.215285,184.49228 37.18404,184.19931 L 37.18404,184.19931 z M 37.096149,181.84384 C 36.713333,182.00009 36.139114,182.13291 35.373493,182.24228 C 34.939897,182.30478 34.633257,182.37509 34.453571,182.45322 C 34.273882,182.53134 34.13521,182.6456 34.037556,182.79599 C 33.939898,182.94638 33.89107,183.11337 33.891071,183.29697 C 33.89107,183.57822 33.997515,183.81259 34.210407,184.00009 C 34.423296,184.18759 34.734819,184.28134 35.144978,184.28134 C 35.551224,184.28134 35.912552,184.19248 36.228962,184.01474 C 36.545364,183.83701 36.777786,183.59384 36.926228,183.28525 C 37.039504,183.04697 37.096145,182.69541 37.096149,182.23056 L 37.096149,181.84384 z M 39.609821,185.48251 L 40.635212,185.63486 C 40.678179,185.95126 40.79732,186.18173 40.992634,186.32626 C 41.25435,186.52157 41.611772,186.61923 42.064899,186.61923 C 42.553177,186.61923 42.93013,186.52157 43.195759,186.32626 C 43.461379,186.13095 43.641067,185.85751 43.734821,185.50595 C 43.789504,185.29111 43.814895,184.83994 43.810993,184.15244 C 43.350051,184.6954 42.775833,184.96689 42.088337,184.96689 C 41.232866,184.96689 40.570757,184.65829 40.102009,184.04111 C 39.633258,183.42392 39.398883,182.68369 39.398884,181.8204 C 39.398883,181.22666 39.506305,180.67881 39.721149,180.17685 C 39.935992,179.6749 40.247515,179.28721 40.65572,179.01376 C 41.063921,178.74033 41.543413,178.60361 42.094196,178.60361 C 42.828568,178.60361 43.434036,178.90049 43.910603,179.49423 L 43.910603,178.74423 L 44.883259,178.74423 L 44.883259,184.12314 C 44.883253,185.09189 44.78462,185.77841 44.58736,186.18271 C 44.390089,186.587 44.07759,186.90634 43.64986,187.14072 C 43.222122,187.37509 42.695755,187.49228 42.070759,187.49228 C 41.328569,187.49228 40.72896,187.32528 40.271931,186.9913 C 39.814899,186.65732 39.594196,186.15439 39.609821,185.48251 L 39.609821,185.48251 z M 40.482868,181.74423 C 40.482867,182.56064 40.644976,183.15634 40.969196,183.53134 C 41.293413,183.90634 41.699662,184.09384 42.187946,184.09384 C 42.672318,184.09384 43.078567,183.90732 43.406696,183.53427 C 43.734817,183.16123 43.898879,182.57627 43.898884,181.77939 C 43.898879,181.01767 43.729934,180.44346 43.392048,180.05673 C 43.054153,179.67002 42.646927,179.47666 42.170368,179.47665 C 41.701616,179.47666 41.303178,179.66709 40.975056,180.04794 C 40.646929,180.42881 40.482867,180.99424 40.482868,181.74423 L 40.482868,181.74423 z M 50.742634,182.96298 L 51.832478,183.09775 C 51.660597,183.73447 51.342238,184.22861 50.877399,184.58017 C 50.412551,184.93173 49.818802,185.10751 49.096149,185.10751 C 48.185991,185.10751 47.464312,184.82724 46.93111,184.26669 C 46.397907,183.70615 46.131305,182.92002 46.131306,181.90829 C 46.131305,180.86142 46.400836,180.04892 46.939899,179.47079 C 47.47896,178.89268 48.178178,178.60361 49.037556,178.60361 C 49.869583,178.60361 50.54927,178.88682 51.076618,179.45322 C 51.603956,180.01963 51.867628,180.8165 51.867634,181.84384 C 51.867628,181.90634 51.865675,182.00009 51.861774,182.12509 L 47.221149,182.12509 C 47.26021,182.80869 47.45357,183.33212 47.801228,183.6954 C 48.148881,184.05869 48.582475,184.24033 49.102009,184.24033 C 49.488724,184.24033 49.818802,184.13876 50.092243,183.93564 C 50.365676,183.73251 50.582473,183.4083 50.742634,182.96298 L 50.742634,182.96298 z M 47.279743,181.2579 L 50.754353,181.2579 C 50.707473,180.73447 50.57466,180.34189 50.355915,180.08017 C 50.019973,179.67392 49.584427,179.4708 49.049274,179.47079 C 48.564897,179.4708 48.15767,179.63291 47.827595,179.95712 C 47.497515,180.28135 47.314898,180.71494 47.279743,181.2579 L 47.279743,181.2579 z"
     id="text998" />
  <path
     d="M 27.756512,17.344397 L 27.756512,144.68535 L 141.79201,144.68535 L 142.35856,38.608763 L 121.46305,17.344397 L 27.756512,17.344397 z "
     id="path2674"
     sodipodi:nodetypes="cccccc"
     style="fill:none;fill-rule:evenodd;stroke:#ffffff;stroke-width:1.7000000;stroke-opacity:1.0000000;" />
  <path
     d="M 750.01435,260.57234 C 715.94460,250.48602 671.79788,251.91624 638.44792,257.66516 C 644.20618,220.71628 644.92597,174.41021 637.00835,136.74154 L 750.01435,260.57234 z "
     id="path906"
     sodipodi:nodetypes="cccc"
     style="fill:url(#linearGradient1497);fill-opacity:1;fill-rule:evenodd;stroke-width:0.95407495pt;"
     transform="matrix(0.296689,0.000000,0.000000,0.296689,-71.19601,-34.05825)" />
</svg>
